<svg xmlns="http://www.w3.org/2000/svg" id="group-small" fill="currentColor" aria-hidden="true" data-supported-dps="16x16" viewBox="0 0 16 16" data-token-id="201" width="16" height="16" class="b0f8aa1c _888e9e4f _5ac7fe5d adb9f937 _23b21d15 _2b0fe6b2" role="img" aria-label=""><path d="M8.5 7h-1A1.5 1.5 0 0 0 6 8.5V14h4V8.5A1.5 1.5 0 0 0 8.5 7m4.25 1h-.5A1.25 1.25 0 0 0 11 9.25V14h3V9.25A1.25 1.25 0 0 0 12.75 8"></path><circle cx="8" cy="4" r="2"></circle><circle cx="12.5" cy="5.5" r="1.5"></circle><path d="M3.75 8h-.5A1.25 1.25 0 0 0 2 9.25V14h3V9.25A1.25 1.25 0 0 0 3.75 8"></path><circle cx="3.5" cy="5.5" r="1.5"></circle></svg>